<svg xmlns="http://www.w3.org/2000/svg" xmlns:xlink="http://www.w3.org/1999/xlink" xml:space="preserve" width="24" height="24" viewBox="0 0 24 24"><defs><linearGradient id="da"><stop offset="0" style="stop-color:#44f593;stop-opacity:1"/><stop offset="1" style="stop-color:#264283;stop-opacity:1"/></linearGradient><linearGradient id="bd"><stop offset="0" style="stop-color:#45fc92;stop-opacity:1"/><stop offset="1" style="stop-color:#265c9f;stop-opacity:1"/></linearGradient><linearGradient id="bf"><stop offset="0" style="stop-color:#8c61dd;stop-opacity:1"/><stop offset="1" style="stop-color:#25215e;stop-opacity:1"/></linearGradient><linearGradient id="bc"><stop offset="0" style="stop-color:#45fc92;stop-opacity:1"/><stop offset="1" style="stop-color:#0219fe;stop-opacity:1"/></linearGradient><linearGradient xlink:href="#aYY" id="aZ" x1="22.188" x2="5.319" y1="23.063" y2="5.324" gradientTransform="scale(.75)" gradientUnits="userSpaceOnUse" spreadMethod="pad"><stop offset="0" style="stop-opacity:1;stop-color:#333"/><stop offset=".997" style="stop-opacity:1;stop-color:#1a1a1a"/><stop offset="1" style="stop-opacity:1;stop-color:#6f0"/></linearGradient><linearGradient xlink:href="#da" id="dX" x1="-13.16" x2="1" y1="12" y2="12" gradientTransform="matrix(.95483 0 0 .95676 19.645 .483)" gradientUnits="userSpaceOnUse"/><radialGradient xlink:href="#bf" id="dW" cx="-173.733" cy="-27.552" r="48" fx="-172.683" fy="-43.66" gradientTransform="matrix(.21972 0 0 .32101 45.356 18.387)" gradientUnits="userSpaceOnUse"/></defs><path d="m12 1 8.217 1.826a1 1 0 0 1 .783.976v9.987a6 6 0 0 1-2.672 4.992L12 23l-6.328-4.219A6 6 0 0 1 3 13.79V3.802a1 1 0 0 1 .783-.976Z" style="fill:url(#dW);fill-opacity:1;stroke:none;stroke-width:.999999"/><path d="M12.007 1.44 7.08 2.535v16.662l4.927 3.29 6.042-4.036a5.74 5.74 0 0 0 2.551-4.776v-9.32c-.006-.314-.045-.596-.175-.786v-.002a.96.96 0 0 0-.573-.381Z" style="fill:url(#dX);stroke:none;stroke-width:.955796"/><path d="M15.22 3.11a7.62 7.608 0 0 1 4.545 5.711v-4.2a.626.626 0 0 0-.49-.61z" style="opacity:.3;fill:#fff;fill-opacity:1;stroke-width:.625636"/><path d="M12.007 4.87a3.45 3.45 0 0 1 1.093 6.72v6.216l-1.093 1.258-1.093-1.258v-.714l.726-.977-.724-.976.724-.976-.726-.977V11.59a3.45 3.45 0 0 1 1.093-6.72m-.887 2.38a.888.888 0 1 0 1.776 0 .888.888 0 0 0-1.776 0" style="opacity:.6;fill:#fff;fill-rule:nonzero;stroke:none;stroke-width:.251215;stroke-linecap:butt;stroke-linejoin:miter;stroke-miterlimit:10;stroke-dasharray:none"/><rect width=".414" height="16.796" x="6.737" y="2.477" rx=".207" ry=".207" style="fill:#85ffae;fill-opacity:1;stroke:#00df8c;stroke-width:.0896158;stroke-dasharray:none;stroke-opacity:1"/><path d="m87.521 2.44-.007.001v17.045l.007.006zM89.521 1.992l-.007.002v18.828l.007.006zM91.521 1.547l-.007.002V22.16l.007.004zM93.514 1.775V21.48l.007-.003v-19.7ZM95.514 2.22v17.925l.007-.006V2.223ZM97.514 2.666v16.143l.007-.006V2.668ZM99.514 3.111v13.926l.007-.01V3.113Z" style="opacity:1;fill:#fff;fill-opacity:1;stroke:none;stroke-width:.0453035;stroke-dasharray:none;stroke-dashoffset:0;stroke-opacity:1" transform="translate(-80)"/><path d="m88.08 2.314-.027.006h7.906l-.025-.006zM87.08 4.314v.006h13.52v-.006z" style="opacity:1;fill:#fff;fill-opacity:1;stroke:none;stroke-width:.0453035;stroke-dasharray:none;stroke-dashoffset:0;stroke-opacity:1" transform="translate(-80)"/><path d="M87.08 6.314v.006h13.52v-.006zM87.08 8.314v.006h13.52v-.006z" style="fill:#fff;stroke:none;stroke-width:.955796" transform="translate(-80)"/><path d="M87.08 10.314v.006h13.52v-.006zM87.08 12.314v.006h13.52v-.006z" style="opacity:1;fill:#fff;fill-opacity:1;stroke:none;stroke-width:.0453035;stroke-dasharray:none;stroke-dashoffset:0;stroke-opacity:1" transform="translate(-80)"/><path d="M87.08 14.314v.006h13.484v-.006zM87.08 16.314v.006h12.875l.004-.006zM87.08 18.314v.006h11.156q.006-.002.01-.006zM88.752 20.314l.01.006h6.49l.008-.006zM91.746 22.314l.008.006h.504l.008-.006z" style="fill:#fff;stroke:none;stroke-width:.955796" transform="translate(-80)"/><path d="M10.56 1.807v.047h.047v-.047zm.381 0v.047h.047v-.047zm.381 0v.047h.047v-.047zm.381 0v.047h.047v-.047zm.381 0v.047h.047v-.047zm.38 0v.047h.048v-.047zm.382 0v.047h.047v-.047zm.38 0v.047h.047v-.047zm.381 0v.047h.047v-.047zm-3.37.027-.048.01v.01h.047zm-3.094.715v.047h.046v-.047zm.38 0v.047h.047v-.047zm.381 0v.047h.047v-.047zm.381 0v.047h.047v-.047zm.381 0v.047h.047v-.047zm.38 0v.047h.048v-.047zm.382 0v.047h.047v-.047zm.38 0v.047h.047v-.047zm.381 0v.047h.047v-.047zm.372 0v.047h.046v-.047zm.38 0v.047h.047v-.047zm.381 0v.047h.047v-.047zm.381 0v.047h.047v-.047zm.381 0v.047h.047v-.047zm.38 0v.047h.048v-.047zm.382 0v.047h.047v-.047zm.38 0v.047h.047v-.047zm.381 0v.047h.047v-.047zm.385 0v.047h.047v-.047zm.381 0v.047h.047v-.047zm.38 0v.047h.048v-.047zm.382 0v.047h.047v-.047zm.38 0v.047h.047v-.047zm.381 0v.047h.047v-.047zm.381 0v.047h.047v-.047zm.381 0v.047h.047v-.047zm.381.012v.035h.047v-.024Zm-9.896.726v.047h.046v-.047zm.38 0v.047h.047v-.047zm.381 0v.047h.047v-.047zm.381 0v.047h.047v-.047zm.381 0v.047h.047v-.047zm.38 0v.047h.048v-.047zm.382 0v.047h.047v-.047zm.38 0v.047h.047v-.047zm.381 0v.047h.047v-.047zm.372 0v.047h.046v-.047zm.38 0v.047h.047v-.047zm.381 0v.047h.047v-.047zm.381 0v.047h.047v-.047zm.381 0v.047h.047v-.047zm.38 0v.047h.048v-.047zm.382 0v.047h.047v-.047zm.38 0v.047h.047v-.047zm.381 0v.047h.047v-.047zm.385 0v.047h.047v-.047zm.381 0v.047h.047v-.047zm.38 0v.047h.048v-.047zm.382 0v.047h.047v-.047zm.38 0v.047h.047v-.047zm.381 0v.047h.047v-.047zm.381 0v.047h.047v-.047zm.381 0v.047h.047v-.047zm.381 0v.047h.047v-.047zm.383 0v.047h.047v-.047zm.38 0v.047h.048v-.047zm.382 0v.047h.046v-.047zm.38 0v.047h.047v-.047zm.381 0v.047h.047v-.047zm.381 0v.047h.047v-.047zm.381 0v.047h.047v-.047zm.38 0v.047h.048v-.035l-.022-.012zm-12.944.746v.047h.046v-.047zm.38 0v.047h.047v-.047zm.381 0v.047h.047v-.047zm.381 0v.047h.047v-.047zm.381 0v.047h.047v-.047zm.38 0v.047h.048v-.047zm.382 0v.047h.047v-.047zm.38 0v.047h.047v-.047zm.381 0v.047h.047v-.047zm.372 0v.047h.046v-.047zm.38 0v.047h.047v-.047zm.381 0v.047h.047v-.047zm.381 0v.047h.047v-.047zm.381 0v.047h.047v-.047zm.38 0v.047h.048v-.047zm.382 0v.047h.047v-.047zm.38 0v.047h.047v-.047zm.381 0v.047h.047v-.047zm.385 0v.047h.047v-.047zm.381 0v.047h.047v-.047zm.38 0v.047h.048v-.047zm.382 0v.047h.047v-.047zm.38 0v.047h.047v-.047zm.381 0v.047h.047v-.047zm.381 0v.047h.047v-.047zm.381 0v.047h.047v-.047zm.381 0v.047h.047v-.047zm.383 0v.047h.047v-.047zm.38 0v.047h.048v-.047zm.382 0v.047h.046v-.047zm.38 0v.047h.047v-.047zm.381 0v.047h.047v-.047zm.381 0v.047h.047v-.047zm.381 0v.047h.047v-.047zm.38 0v.047h.048v-.047zm.382 0v.047h.047v-.047Zm-13.326.742v.047h.046v-.047zm.38 0v.047h.047v-.047zm.381 0v.047h.047v-.047zm.381 0v.047h.047v-.047zm.381 0v.047h.047v-.047zm.38 0v.047h.048v-.047zm.382 0v.047h.047v-.047zm.38 0v.047h.047v-.047zm.381 0v.047h.047v-.047zm.372 0v.047h.046v-.047zm.38 0v.047h.047v-.047zm.381 0v.047h.047v-.047zm.381 0v.047h.047v-.047zm.381 0v.047h.047v-.047zm.38 0v.047h.048v-.047zm.382 0v.047h.047v-.047zm.38 0v.047h.047v-.047zm.381 0v.047h.047v-.047zm.385 0v.047h.047v-.047zm.381 0v.047h.047v-.047zm.38 0v.047h.048v-.047zm.382 0v.047h.047v-.047zm.38 0v.047h.047v-.047zm.381 0v.047h.047v-.047zm.381 0v.047h.047v-.047zm.381 0v.047h.047v-.047zm.381 0v.047h.047v-.047zm.383 0v.047h.047v-.047zm.38 0v.047h.048v-.047zm.382 0v.047h.046v-.047zm.38 0v.047h.047v-.047zm.381 0v.047h.047v-.047zm.381 0v.047h.047v-.047zm.381 0v.047h.047v-.047zm.38 0v.047h.048v-.047zm.382 0v.047h.047v-.047Zm-13.326.743v.046h.046v-.046zm.38 0v.046h.047v-.046zm.381 0v.046h.047v-.046zm.381 0v.046h.047v-.046zm.381 0v.046h.047v-.046zm.38 0v.046h.048v-.046zm.382 0v.046h.047v-.046zm.38 0v.046h.047v-.046zm.381 0v.046h.047v-.046zm.372 0v.046h.046v-.046zm.38 0v.046h.047v-.046zm.381 0v.046h.047v-.046zm.381 0v.046h.047v-.046zm.381 0v.046h.047v-.046zm.38 0v.046h.048v-.046zm.382 0v.046h.047v-.046zm.38 0v.046h.047v-.046zm.381 0v.046h.047v-.046zm.385 0v.046h.047v-.046zm.381 0v.046h.047v-.046zm.38 0v.046h.048v-.046zm.382 0v.046h.047v-.046zm.38 0v.046h.047v-.046zm.381 0v.046h.047v-.046zm.381 0v.046h.047v-.046zm.381 0v.046h.047v-.046zm.381 0v.046h.047v-.046zm.383 0v.046h.047v-.046zm.38 0v.046h.048v-.046zm.382 0v.046h.046v-.046zm.38 0v.046h.047v-.046zm.381 0v.046h.047v-.046zm.381 0v.046h.047v-.046zm.381 0v.046h.047v-.046zm.38 0v.046h.048v-.046zm.382 0v.046h.047v-.046Zm-13.326.738v.047h.046v-.047zm.38 0v.047h.047v-.047zm.381 0v.047h.047v-.047zm.381 0v.047h.047v-.047zm.381 0v.047h.047v-.047zm.38 0v.047h.048v-.047zm.382 0v.047h.047v-.047zm.38 0v.047h.047v-.047zm.381 0v.047h.047v-.047zm.372 0v.047h.046v-.047zm.38 0v.047h.047v-.047zm.381 0v.047h.047v-.047zm.381 0v.047h.047v-.047zm.381 0v.047h.047v-.047zm.38 0v.047h.048v-.047zm.382 0v.047h.047v-.047zm.38 0v.047h.047v-.047zm.381 0v.047h.047v-.047zm.385 0v.047h.047v-.047zm.381 0v.047h.047v-.047zm.38 0v.047h.048v-.047zm.382 0v.047h.047v-.047zm.38 0v.047h.047v-.047zm.381 0v.047h.047v-.047zm.381 0v.047h.047v-.047zm.381 0v.047h.047v-.047zm.381 0v.047h.047v-.047zm.383 0v.047h.047v-.047zm.38 0v.047h.048v-.047zm.382 0v.047h.046v-.047zm.38 0v.047h.047v-.047zm.381 0v.047h.047v-.047zm.381 0v.047h.047v-.047zm.381 0v.047h.047v-.047zm.38 0v.047h.048v-.047zm.382 0v.047h.047v-.047Zm-13.326.746v.047h.046v-.047zm.38 0v.047h.047v-.047zm.381 0v.047h.047v-.047zm.381 0v.047h.047v-.047zm.381 0v.047h.047v-.047zm.38 0v.047h.048v-.047zm.382 0v.047h.047v-.047zm.38 0v.047h.047v-.047zm.381 0v.047h.047v-.047zm.372 0v.047h.046v-.047zm.38 0v.047h.047v-.047zm.381 0v.047h.047v-.047zm.381 0v.047h.047v-.047zm.381 0v.047h.047v-.047zm.38 0v.047h.048v-.047zm.382 0v.047h.047v-.047zm.38 0v.047h.047v-.047zm.381 0v.047h.047v-.047zm.385 0v.047h.047v-.047zm.381 0v.047h.047v-.047zm.38 0v.047h.048v-.047zm.382 0v.047h.047v-.047zm.38 0v.047h.047v-.047zm.381 0v.047h.047v-.047zm.381 0v.047h.047v-.047zm.381 0v.047h.047v-.047zm.381 0v.047h.047v-.047zm.383 0v.047h.047v-.047zm.38 0v.047h.048v-.047zm.382 0v.047h.046v-.047zm.38 0v.047h.047v-.047zm.381 0v.047h.047v-.047zm.381 0v.047h.047v-.047zm.381 0v.047h.047v-.047zm.38 0v.047h.048v-.047zm.382 0v.047h.047v-.047zm-13.326.75v.047h.046v-.047zm.38 0v.047h.047v-.047zm.381 0v.047h.047v-.047zm.381 0v.047h.047v-.047zm.381 0v.047h.047v-.047zm.38 0v.047h.048v-.047zm.382 0v.047h.047v-.047zm.38 0v.047h.047v-.047zm.381 0v.047h.047v-.047zm.372 0v.047h.046v-.047zm.38 0v.047h.047v-.047zm.381 0v.047h.047v-.047zm.381 0v.047h.047v-.047zm.381 0v.047h.047v-.047zm.38 0v.047h.048v-.047zm.382 0v.047h.047v-.047zm.38 0v.047h.047v-.047zm.381 0v.047h.047v-.047zm.385 0v.047h.047v-.047zm.381 0v.047h.047v-.047zm.38 0v.047h.048v-.047zm.382 0v.047h.047v-.047zm.38 0v.047h.047v-.047zm.381 0v.047h.047v-.047zm.381 0v.047h.047v-.047zm.381 0v.047h.047v-.047zm.381 0v.047h.047v-.047zm.383 0v.047h.047v-.047zm.38 0v.047h.048v-.047zm.382 0v.047h.046v-.047zm.38 0v.047h.047v-.047zm.381 0v.047h.047v-.047zm.381 0v.047h.047v-.047zm.381 0v.047h.047v-.047zm.38 0v.047h.048v-.047zm.382 0v.047h.047v-.047Zm-13.326.742v.047h.046v-.047zm.38 0v.047h.047v-.047zm.381 0v.047h.047v-.047zm.381 0v.047h.047v-.047zm.381 0v.047h.047v-.047zm.38 0v.047h.048v-.047zm.382 0v.047h.047v-.047zm.38 0v.047h.047v-.047zm.381 0v.047h.047v-.047zm.372 0v.047h.046v-.047zm.38 0v.047h.047v-.047zm.381 0v.047h.047v-.047zm.381 0v.047h.047v-.047zm.381 0v.047h.047v-.047zm.38 0v.047h.048v-.047zm.382 0v.047h.047v-.047zm.38 0v.047h.047v-.047zm.381 0v.047h.047v-.047zm.385 0v.047h.047v-.047zm.381 0v.047h.047v-.047zm.38 0v.047h.048v-.047zm.382 0v.047h.047v-.047zm.38 0v.047h.047v-.047zm.381 0v.047h.047v-.047zm.381 0v.047h.047v-.047zm.381 0v.047h.047v-.047zm.381 0v.047h.047v-.047zm.383 0v.047h.047v-.047zm.38 0v.047h.048v-.047zm.382 0v.047h.046v-.047zm.38 0v.047h.047v-.047zm.381 0v.047h.047v-.047zm.381 0v.047h.047v-.047zm.381 0v.047h.047v-.047zm.38 0v.047h.048v-.047zm.382 0v.047h.047v-.047Zm-13.326.738v.047h.046v-.047zm.38 0v.047h.047v-.047zm.381 0v.047h.047v-.047zm.381 0v.047h.047v-.047zm.381 0v.047h.047v-.047zm.38 0v.047h.048v-.047zm.382 0v.047h.047v-.047zm.38 0v.047h.047v-.047zm.381 0v.047h.047v-.047zm.372 0v.047h.046v-.047zm.38 0v.047h.047v-.047zm.381 0v.047h.047v-.047zm.381 0v.047h.047v-.047zm.381 0v.047h.047v-.047zm.38 0v.047h.048v-.047zm.382 0v.047h.047v-.047zm.38 0v.047h.047v-.047zm.381 0v.047h.047v-.047zm.385 0v.047h.047v-.047zm.381 0v.047h.047v-.047zm.38 0v.047h.048v-.047zm.382 0v.047h.047v-.047zm.38 0v.047h.047v-.047zm.381 0v.047h.047v-.047zm.381 0v.047h.047v-.047zm.381 0v.047h.047v-.047zm.381 0v.047h.047v-.047zm.383 0v.047h.047v-.047zm.38 0v.047h.048v-.047zm.382 0v.047h.046v-.047zm.38 0v.047h.047v-.047zm.381 0v.047h.047v-.047zm.381 0v.047h.047v-.047zm.381 0v.047h.047v-.047zm.38 0v.047h.048v-.047zm.382 0v.047h.047v-.047ZM7.143 9.98v.046h.046V9.98zm.38 0v.046h.047V9.98zm.381 0v.046h.047V9.98zm.381 0v.046h.047V9.98zm.381 0v.046h.047V9.98zm.38 0v.046h.048V9.98zm.382 0v.046h.047V9.98zm.38 0v.046h.047V9.98zm.381 0v.046h.047V9.98zm.372 0v.046h.046V9.98zm.38 0v.046h.047V9.98zm.381 0v.046h.047V9.98zm.381 0v.046h.047V9.98zm.381 0v.046h.047V9.98zm.38 0v.046h.048V9.98zm.382 0v.046h.047V9.98zm.38 0v.046h.047V9.98zm.381 0v.046h.047V9.98zm.385 0v.046h.047V9.98zm.381 0v.046h.047V9.98zm.38 0v.046h.048V9.98zm.382 0v.046h.047V9.98zm.38 0v.046h.047V9.98zm.381 0v.046h.047V9.98zm.381 0v.046h.047V9.98zm.381 0v.046h.047V9.98zm.381 0v.046h.047V9.98zm.383 0v.046h.047V9.98zm.38 0v.046h.048V9.98zm.382 0v.046h.046V9.98zm.38 0v.046h.047V9.98zm.381 0v.046h.047V9.98zm.381 0v.046h.047V9.98zm.381 0v.046h.047V9.98zm.38 0v.046h.048V9.98zm.382 0v.046h.047V9.98Zm-13.326.738v.047h.046v-.047zm.38 0v.047h.047v-.047zm.381 0v.047h.047v-.047zm.381 0v.047h.047v-.047zm.381 0v.047h.047v-.047zm.38 0v.047h.048v-.047zm.382 0v.047h.047v-.047zm.38 0v.047h.047v-.047zm.381 0v.047h.047v-.047zm.372 0v.047h.046v-.047zm.38 0v.047h.047v-.047zm.381 0v.047h.047v-.047zm.381 0v.047h.047v-.047zm.381 0v.047h.047v-.047zm.38 0v.047h.048v-.047zm.382 0v.047h.047v-.047zm.38 0v.047h.047v-.047zm.381 0v.047h.047v-.047zm.385 0v.047h.047v-.047zm.381 0v.047h.047v-.047zm.38 0v.047h.048v-.047zm.382 0v.047h.047v-.047zm.38 0v.047h.047v-.047zm.381 0v.047h.047v-.047zm.381 0v.047h.047v-.047zm.381 0v.047h.047v-.047zm.381 0v.047h.047v-.047zm.383 0v.047h.047v-.047zm.38 0v.047h.048v-.047zm.382 0v.047h.046v-.047zm.38 0v.047h.047v-.047zm.381 0v.047h.047v-.047zm.381 0v.047h.047v-.047zm.381 0v.047h.047v-.047zm.38 0v.047h.048v-.047zm.382 0v.047h.047v-.047zm-13.326.742v.047h.046v-.047zm.38 0v.047h.047v-.047zm.381 0v.047h.047v-.047zm.381 0v.047h.047v-.047zm.381 0v.047h.047v-.047zm.38 0v.047h.048v-.047zm.382 0v.047h.047v-.047zm.38 0v.047h.047v-.047zm.381 0v.047h.047v-.047zm.372 0v.047h.046v-.047zm.38 0v.047h.047v-.047zm.381 0v.047h.047v-.047zm.381 0v.047h.047v-.047zm.381 0v.047h.047v-.047zm.38 0v.047h.048v-.047zm.382 0v.047h.047v-.047zm.38 0v.047h.047v-.047zm.381 0v.047h.047v-.047zm.385 0v.047h.047v-.047zm.381 0v.047h.047v-.047zm.38 0v.047h.048v-.047zm.382 0v.047h.047v-.047zm.38 0v.047h.047v-.047zm.381 0v.047h.047v-.047zm.381 0v.047h.047v-.047zm.381 0v.047h.047v-.047zm.381 0v.047h.047v-.047zm.383 0v.047h.047v-.047zm.38 0v.047h.048v-.047zm.382 0v.047h.046v-.047zm.38 0v.047h.047v-.047zm.381 0v.047h.047v-.047zm.381 0v.047h.047v-.047zm.381 0v.047h.047v-.047zm.38 0v.047h.048v-.047zm.382 0v.047h.047v-.047zm-13.326.738v.047h.046v-.047zm.38 0v.047h.047v-.047zm.381 0v.047h.047v-.047zm.381 0v.047h.047v-.047zm.381 0v.047h.047v-.047zm.38 0v.047h.048v-.047zm.382 0v.047h.047v-.047zm.38 0v.047h.047v-.047zm.381 0v.047h.047v-.047zm.372 0v.047h.046v-.047zm.38 0v.047h.047v-.047zm.381 0v.047h.047v-.047zm.381 0v.047h.047v-.047zm.381 0v.047h.047v-.047zm.38 0v.047h.048v-.047zm.382 0v.047h.047v-.047zm.38 0v.047h.047v-.047zm.381 0v.047h.047v-.047zm.385 0v.047h.047v-.047zm.381 0v.047h.047v-.047zm.38 0v.047h.048v-.047zm.382 0v.047h.047v-.047zm.38 0v.047h.047v-.047zm.381 0v.047h.047v-.047zm.381 0v.047h.047v-.047zm.381 0v.047h.047v-.047zm.381 0v.047h.047v-.047zm.383 0v.047h.047v-.047zm.38 0v.047h.048v-.047zm.382 0v.047h.046v-.047zm.38 0v.047h.047v-.047zm.381 0v.047h.047v-.047zm.381 0v.047h.047v-.047zm.381 0v.047h.047v-.047zm.38 0v.047h.048v-.047zm.382 0v.047h.047v-.047zm-13.326.746v.047h.046v-.047zm.38 0v.047h.047v-.047zm.381 0v.047h.047v-.047zm.381 0v.047h.047v-.047zm.381 0v.047h.047v-.047zm.38 0v.047h.048v-.047zm.382 0v.047h.047v-.047zm.38 0v.047h.047v-.047zm.381 0v.047h.047v-.047zm.372 0v.047h.046v-.047zm.38 0v.047h.047v-.047zm.381 0v.047h.047v-.047zm.381 0v.047h.047v-.047zm.381 0v.047h.047v-.047zm.38 0v.047h.048v-.047zm.382 0v.047h.047v-.047zm.38 0v.047h.047v-.047zm.381 0v.047h.047v-.047zm.385 0v.047h.047v-.047zm.381 0v.047h.047v-.047zm.38 0v.047h.048v-.047zm.382 0v.047h.047v-.047zm.38 0v.047h.047v-.047zm.381 0v.047h.047v-.047zm.381 0v.047h.047v-.047zm.381 0v.047h.047v-.047zm.381 0v.047h.047v-.047zm.383 0v.047h.047v-.047zm.38 0v.047h.048v-.047zm.382 0v.047h.046v-.047zm.38 0v.047h.047v-.047zm.381 0v.047h.047v-.047zm.381 0v.047h.047v-.047zm.381 0v.047h.047v-.047zm.38 0v.047h.048v-.047zm.382 0v.047h.047v-.047zm-13.326.75v.047h.046v-.047zm.38 0v.047h.047v-.047zm.381 0v.047h.047v-.047zm.381 0v.047h.047v-.047zm.381 0v.047h.047v-.047zm.38 0v.047h.048v-.047zm.382 0v.047h.047v-.047zm.38 0v.047h.047v-.047zm.381 0v.047h.047v-.047zm.372 0v.047h.046v-.047zm.38 0v.047h.047v-.047zm.381 0v.047h.047v-.047zm.381 0v.047h.047v-.047zm.381 0v.047h.047v-.047zm.38 0v.047h.048v-.047zm.382 0v.047h.047v-.047zm.38 0v.047h.047v-.047zm.381 0v.047h.047v-.047zm.385 0v.047h.047v-.047zm.381 0v.047h.047v-.047zm.38 0v.047h.048v-.047zm.382 0v.047h.047v-.047zm.38 0v.047h.047v-.047zm.381 0v.047h.047v-.047zm.381 0v.047h.047v-.047zm.381 0v.047h.047v-.047zm.381 0v.047h.047v-.047zm.383 0v.047h.047v-.047zm.38 0v.047h.048v-.047zm.382 0v.047h.046v-.047zm.38 0v.047h.047v-.047zm.381 0v.047h.047v-.047zm.381 0v.047h.047v-.047zm.381 0v.047h.047v-.047zm.38 0v.047h.048v-.047zm.382 0v.047h.047v-.047zm-13.326.743v.046h.046v-.046zm.38 0v.046h.047v-.046zm.381 0v.046h.047v-.046zm.381 0v.046h.047v-.046zm.381 0v.046h.047v-.046zm.38 0v.046h.048v-.046zm.382 0v.046h.047v-.046zm.38 0v.046h.047v-.046zm.381 0v.046h.047v-.046zm.372 0v.046h.046v-.046zm.38 0v.046h.047v-.046zm.381 0v.046h.047v-.046zm.381 0v.046h.047v-.046zm.381 0v.046h.047v-.046zm.38 0v.046h.048v-.046zm.382 0v.046h.047v-.046zm.38 0v.046h.047v-.046zm.381 0v.046h.047v-.046zm.385 0v.046h.047v-.046zm.381 0v.046h.047v-.046zm.38 0v.046h.048v-.046zm.382 0v.046h.047v-.046zm.38 0v.046h.047v-.046zm.381 0v.046h.047v-.046zm.381 0v.046h.047v-.046zm.381 0v.046h.047v-.046zm.381 0v.046h.047v-.046zm.383 0v.046h.047v-.046zm.38 0v.046h.048v-.046zm.382 0v.046h.046v-.046zm.38 0v.046h.047v-.046zm.381 0v.046h.047v-.046zm.381 0v.046h.047v-.046zm.381 0v.046h.047v-.046zm.38 0v.046h.048v-.046zm.382 0v.046h.047v-.046zm-13.326.738v.047h.046v-.047zm.38 0v.047h.047v-.047zm.381 0v.047h.047v-.047zm.381 0v.047h.047v-.047zm.381 0v.047h.047v-.047zm.38 0v.047h.048v-.047zm.382 0v.047h.047v-.047zm.38 0v.047h.047v-.047zm.381 0v.047h.047v-.047zm.372 0v.047h.046v-.047zm.38 0v.047h.047v-.047zm.381 0v.047h.047v-.047zm.381 0v.047h.047v-.047zm.381 0v.047h.047v-.047zm.38 0v.047h.048v-.047zm.382 0v.047h.047v-.047zm.38 0v.047h.047v-.047zm.381 0v.047h.047v-.047zm.385 0v.047h.047v-.047zm.381 0v.047h.047v-.047zm.38 0v.047h.048v-.047zm.382 0v.047h.047v-.047zm.38 0v.047h.047v-.047zm.381 0v.047h.047v-.047zm.381 0v.047h.047v-.047zm.381 0v.047h.047v-.047zm.381 0v.047h.047v-.047zm.383 0v.047h.047v-.047zm.38 0v.047h.048v-.047zm.382 0v.047h.046v-.047zm.38 0v.047h.047v-.047zm.381 0v.047h.047v-.047zm.381 0v.047h.047v-.047zm.381 0v.047h.047v-.047zm.38 0v.047h.048v-.047zm-12.944.746v.047h.046v-.047zm.38 0v.047h.047v-.047zm.381 0v.047h.047v-.047zm.381 0v.047h.047v-.047zm.381 0v.047h.047v-.047zm.38 0v.047h.048v-.047zm.382 0v.047h.047v-.047zm.38 0v.047h.047v-.047zm.381 0v.047h.047v-.047zm.372 0v.047h.046v-.047zm.38 0v.047h.047v-.047zm.381 0v.047h.047v-.047zm.381 0v.047h.047v-.047zm.381 0v.047h.047v-.047zm.38 0v.047h.048v-.047zm.382 0v.047h.047v-.047zm.38 0v.047h.047v-.047zm.381 0v.047h.047v-.047zm.385 0v.047h.047v-.047zm.381 0v.047h.047v-.047zm.38 0v.047h.048v-.047zm.382 0v.047h.047v-.047zm.38 0v.047h.047v-.047zm.381 0v.047h.047v-.047zm.381 0v.047h.047v-.047zm.381 0v.047h.047v-.047zm.381 0v.047h.047v-.047zm.383 0v.047h.047v-.047zm.38 0v.047h.048v-.047zm.382 0v.047h.046v-.047zm.38 0v.047h.047v-.047zm.381 0v.047h.047v-.047zm.381 0v.047h.047v-.047zm.381 0v.047h.047v-.047zm.38 0v.047h.038l.01-.028v-.02zm-12.944.75v.047h.046v-.047zm.38 0v.047h.047v-.047zm.381 0v.047h.047v-.047zm.381 0v.047h.047v-.047zm.381 0v.047h.047v-.047zm.38 0v.047h.048v-.047zm.382 0v.047h.047v-.047zm.38 0v.047h.047v-.047zm.381 0v.047h.047v-.047zm.372 0v.047h.046v-.047zm.38 0v.047h.047v-.047zm.381 0v.047h.047v-.047zm.381 0v.047h.047v-.047zm.381 0v.047h.047v-.047zm.38 0v.047h.048v-.047zm.382 0v.047h.047v-.047zm.38 0v.047h.047v-.047zm.381 0v.047h.047v-.047zm.385 0v.047h.047v-.047zm.381 0v.047h.047v-.047zm.38 0v.047h.048v-.047zm.382 0v.047h.047v-.047zm.38 0v.047h.047v-.047zm.381 0v.047h.047v-.047zm.381 0v.047h.047v-.047zm.381 0v.047h.047v-.047zm.381 0v.047h.047v-.047zm.383 0v.047h.047v-.047zm.38 0v.047h.048v-.047zm.382 0v.047h.046v-.047zm.38 0v.047h.047v-.047zm.381 0v.047h.047v-.047zm.381 0v.047h.047v-.047zm.381 0v.047h.023q.013-.02.024-.04v-.007zm-12.564.742v.047h.046v-.047zm.38 0v.047h.047v-.047zm.381 0v.047h.047v-.047zm.381 0v.047h.047v-.047zm.381 0v.047h.047v-.047zm.38 0v.047h.048v-.047zm.382 0v.047h.047v-.047zm.38 0v.047h.047v-.047zm.381 0v.047h.047v-.047zm.372 0v.047h.046v-.047zm.38 0v.047h.047v-.047zm.381 0v.047h.047v-.047zm.381 0v.047h.047v-.047zm.381 0v.047h.047v-.047zm.38 0v.047h.048v-.047zm.382 0v.047h.047v-.047zm.38 0v.047h.047v-.047zm.381 0v.047h.047v-.047zm.385 0v.047h.047v-.047zm.381 0v.047h.047v-.047zm.38 0v.047h.048v-.047zm.382 0v.047h.047v-.047zm.38 0v.047h.047v-.047zm.381 0v.047h.047v-.047zm.381 0v.047h.047v-.047zm.381 0v.047h.047v-.047zm.381 0v.047h.047v-.047zm.383 0v.047h.047v-.047zm.38 0v.047h.048v-.047zm.382 0v.047h.046v-.047zm.38 0v.047h.047v-.047zm.381 0v.047h.047v-.047zm-11.802.738v.047h.046v-.047zm.38 0v.047h.047v-.047zm.381 0v.047h.047v-.047zm.381 0v.047h.047v-.047zm.381 0v.047h.047v-.047zm.38 0v.047h.048v-.047zm.382 0v.047h.047v-.047zm.38 0v.047h.047v-.047zm.381 0v.047h.047v-.047zm.372 0v.047h.046v-.047zm.38 0v.047h.047v-.047zm.381 0v.047h.047v-.047zm.381 0v.047h.047v-.047zm.381 0v.047h.047v-.047zm.38 0v.047h.048v-.047zm.382 0v.047h.047v-.047zm.38 0v.047h.047v-.047zm.381 0v.047h.047v-.047zm.385 0v.047h.047v-.047zm.381 0v.047h.047v-.047zm.38 0v.047h.048v-.047zm.382 0v.047h.047v-.047zm.38 0v.047h.047v-.047zm.381 0v.047h.047v-.047zm.381 0v.047h.047v-.047zm.381 0v.047h.047v-.047zm.381 0v.047h.047v-.047zm.383 0v.047h.047v-.047zm.38 0v.047h.048v-.047zm.382 0v.047h.046v-.047zm-11.041.746v.047h.046v-.047zm.38 0v.047h.047v-.047zm.381 0v.047h.047v-.047zm.381 0v.047h.047v-.047zm.381 0v.047h.047v-.047zm.38 0v.047h.048v-.047zm.382 0v.047h.047v-.047zm.38 0v.047h.047v-.047zm.381 0v.047h.047v-.047zm.372 0v.047h.046v-.047zm.38 0v.047h.047v-.047zm.381 0v.047h.047v-.047zm.381 0v.047h.047v-.047zm.381 0v.047h.047v-.047zm.38 0v.047h.048v-.047zm.382 0v.047h.047v-.047zm.38 0v.047h.047v-.047zm.381 0v.047h.047v-.047zm.385 0v.047h.047v-.047zm.381 0v.047h.047v-.047zm.38 0v.047h.048v-.047zm.382 0v.047h.047v-.047zm.38 0v.047h.047v-.047zm.381 0v.047h.047v-.047zm.381 0v.047h.047v-.047zm.381 0v.047h.047v-.047zm.381 0v.047h.047v-.047zm-9.135.747v.046h.047v-.046zm.381 0v.046h.047v-.046zm.381 0v.046h.047v-.046zm.38 0v.046h.048v-.046zm.382 0v.046h.047v-.046zm.38 0v.046h.047v-.046zm.381 0v.046h.047v-.046zm.372 0v.046h.046v-.046zm.38 0v.046h.047v-.046zm.381 0v.046h.047v-.046zm.381 0v.046h.047v-.046zm.381 0v.046h.047v-.046zm.38 0v.046h.048v-.046zm.382 0v.046h.047v-.046zm.38 0v.046h.047v-.046zm.381 0v.046h.047v-.046zm.385 0v.046h.047v-.046zm.381 0v.046h.047v-.046zm.38 0v.046h.048v-.046zm.382 0v.046h.047v-.046zm.38 0v.046h.047v-.046zm.381 0v.046h.047v-.046zm-6.85.742v.047h.048v-.047zm.382 0v.047h.047v-.047zm.38 0v.047h.047v-.047zm.381 0v.047h.047v-.047zm.372 0v.047h.046v-.047zm.38 0v.047h.047v-.047zm.381 0v.047h.047v-.047zm.381 0v.047h.047v-.047zm.381 0v.047h.047v-.047zm.38 0v.047h.048v-.047zm.382 0v.047h.047v-.047zm.38 0v.047h.047v-.047zm.381 0v.047h.047v-.047zm.385 0v.047h.047v-.047zm.381 0v.047h.047v-.047zm.38 0v.047h.048v-.047zm.382 0v.013l.02-.013zm-4.946.738v.047h.047v-.047zm.372 0v.047h.046v-.047zm.38 0v.047h.047v-.047zm.381 0v.047h.047v-.047zm.381 0v.047h.047v-.047zm.381 0v.047h.047v-.047zm.38 0v.047h.048v-.047zm.382 0v.047h.047v-.047zm.38 0v.047h.047v-.047zm.381 0v.047h.047v-.047zm.385 0v.04l.047-.032v-.008zm-2.67.746v.047h.047v-.047zm.381 0v.047h.047v-.047zm.381 0v.047h.047v-.047zm.38 0v.047h.048v-.047zm.382 0v.047h.017l.03-.02v-.027z" style="fill:#fff;fill-opacity:.248141;stroke:none;stroke-width:.955796"/></svg>